HIERARCHY
ROOT Hips
{
     OFFSET 1.88212 96.90440 -13.34250
     CHANNELS 6 Xposition Yposition Zposition Zrotation Xrotation Yrotation
     JOINT Spine
     {
          OFFSET 0.00000 11.89050 0.00000
          CHANNELS 3 Zrotation Xrotation Yrotation
          JOINT Spine1
          {
               OFFSET -0.00000 25.65740 0.12766
               CHANNELS 3 Zrotation Xrotation Yrotation
               JOINT HEad
               {
                    OFFSET 0.00000 8.73416 0.01134
                    CHANNELS 3 Zrotation Xrotation Yrotation
                    End Site
                    {
                         OFFSET -0.29000 12.77420 2.51395
                    }
               }
               JOINT LeftShoulder1
               {
                    OFFSET 8.99000 -0.36225 -0.22000
                    CHANNELS 3 Zrotation Xrotation Yrotation
                    JOINT LeftArm
                    {
                         OFFSET 10.28270 -0.00338 0.32212
                         CHANNELS 3 Zrotation Xrotation Yrotation
                         JOINT LeftForeArm
                         {
                              OFFSET 32.76690 0.09914 -1.42434
                              CHANNELS 3 Zrotation Xrotation Yrotation
                              JOINT LeftHand
                              {
                                   OFFSET 27.56430 0.08536 1.02216
                                   CHANNELS 3 Zrotation Xrotation Yrotation
                                   End Site
                                   {
                                        OFFSET 16.74430 -0.60000 1.50291
                                   }
                              }
                         }
                    }
               }
               JOINT RightShoulder
               {
                    OFFSET -8.99000 -0.36225 -0.22000
                    CHANNELS 3 Zrotation Xrotation Yrotation
                    JOINT RightArm
                    {
                         OFFSET -10.28270 -0.00338 0.32212
                         CHANNELS 3 Zrotation Xrotation Yrotation
                         JOINT RightForeArm
                         {
                              OFFSET -32.89710 0.09914 -1.42434
                              CHANNELS 3 Zrotation Xrotation Yrotation
                              JOINT RightHand
                              {
                                   OFFSET -27.49210 0.08536 1.02216
                                   CHANNELS 3 Zrotation Xrotation Yrotation
                                   End Site
                                   {
                                        OFFSET -16.63120 -0.60000 1.50291
                                   }
                              }
                         }
                    }
               }
          }
     }
     JOINT LeftUpLeg
     {
          OFFSET 8.94580 -8.66707 0.10165
          CHANNELS 3 Zrotation Xrotation Yrotation
          JOINT LeftLeg
          {
               OFFSET 0.00000 -44.42270 1.37270
               CHANNELS 3 Zrotation Xrotation Yrotation
               JOINT LeftFoot
               {
                    OFFSET -0.25355 -42.09240 -1.46059
                    CHANNELS 3 Zrotation Xrotation Yrotation
                    JOINT LeftToes
                    {
                         OFFSET -0.04000 -4.41509 8.49910
                         CHANNELS 3 Zrotation Xrotation Yrotation
                         End Site
                         {
                              OFFSET 0.08000 -0.04745 9.77979
                         }
                    }
               }
          }
     }
     JOINT RightUpLeg
     {
          OFFSET -8.94580 -8.66707 0.10165
          CHANNELS 3 Zrotation Xrotation Yrotation
          JOINT RightLeg
          {
               OFFSET 0.00000 -44.42270 1.37270
               CHANNELS 3 Zrotation Xrotation Yrotation
               JOINT RightFoot
               {
                    OFFSET 0.25355 -42.09240 -1.46059
                    CHANNELS 3 Zrotation Xrotation Yrotation
                    JOINT RightToes
                    {
                         OFFSET 0.04000 -4.41509 8.49910
                         CHANNELS 3 Zrotation Xrotation Yrotation
                         End Site
                         {
                              OFFSET -0.08000 -0.13745 9.77979
                         }
                    }
               }
          }
     }
}
MOTION
Frames: 20
Frame Time: 0.01667
82.34158 87.62866 -35.64684 -8.53441 10.78381 -149.99062 -16.31391 26.35109 -7.25701 -0.00484 0.03516 0.03832 -10.90455 23.07201 19.94590 -1.34806 10.15883 15.14470 -128.72729 -65.92838 -106.24276 -31.51286 57.46695 -89.54787 14.36987 5.28923 -8.94510 13.57938 14.93312 16.04911 85.67085 -1.37321 68.56135 -4.80440 29.74717 94.83688 21.83563 8.91850 13.62250 15.25829 -7.71227 -18.56398 -28.34605 10.96536 60.07518 -3.33081 0.00954 -0.00016 8.47936 -7.03007 -55.56818 -34.37739 19.09757 15.51455 40.65634 3.61679 -39.25011 -27.66300 0.03534 -0.03588 16.33813 -28.01648 16.20330 
81.36818 88.18828 -35.66275 -7.68467 10.53500 -151.37752 -15.63302 23.31053 -8.10392 -0.00648 0.03748 0.03251 -13.11484 24.68849 22.51719 -2.38778 11.91706 16.11964 -131.79318 -66.42043 -108.93022 -30.58265 58.48743 -89.87257 14.59445 5.36342 -8.51175 13.10833 16.99869 16.72061 84.97190 -1.42334 69.41532 -3.63310 29.49542 93.90943 17.26236 9.41292 14.77734 16.69750 -6.08974 -20.05101 -29.56207 6.10185 62.18115 -0.86510 0.00542 0.00543 8.09235 -7.70977 -55.17214 -34.78494 20.65347 15.58647 39.96991 -0.10917 -37.82742 -25.37832 0.03770 -0.03306 13.50576 -26.80655 17.08091 
80.33485 88.59170 -35.73033 -6.91254 10.31204 -152.56483 -14.96734 20.83779 -8.61794 -0.00619 0.03536 0.02862 -15.01132 25.87547 24.59889 -3.26178 13.30501 16.70517 -134.53816 -66.73884 -111.33990 -29.68666 59.40586 -90.15032 14.75906 5.47867 -8.56903 12.81665 18.61357 16.98567 84.25641 -1.47804 70.09479 -2.63316 29.24308 93.22770 20.14457 9.85711 13.34547 17.93323 -4.69840 -21.40368 -30.65176 1.97004 64.08633 1.44006 0.00187 0.01081 7.58679 -8.83215 -55.00456 -35.10089 21.95984 15.59380 39.41745 -3.12153 -36.55052 -22.75170 0.03509 -0.03171 10.52016 -25.78339 17.79517 
79.25999 88.85259 -35.79623 -6.22617 10.13667 -153.55475 -14.15851 19.94332 -8.06535 -0.00643 0.11639 0.09000 -15.97551 25.86546 24.86930 -3.70646 13.30421 15.95258 -136.76337 -66.92123 -113.28792 -28.78847 60.14585 -90.43198 14.95710 5.63892 -8.27491 12.92239 18.51731 16.11166 83.58002 -1.43280 70.59978 -1.83579 28.94491 92.89871 17.27257 10.27242 14.12807 18.98822 -3.47707 -22.62294 -31.64743 -1.45972 65.77651 3.37967 0.00007 0.01385 7.12552 -10.26128 -54.96690 -35.31490 22.93706 15.53537 38.91699 -5.52726 -35.47711 -19.86689 0.03058 -0.03305 7.42303 -24.81063 18.35698 
78.17415 89.00708 -35.80268 -5.62907 10.03933 -154.36650 -13.30938 20.43106 -6.63240 -0.00897 0.10860 0.07799 -16.17631 25.00761 23.78725 -3.77544 12.30630 14.25441 -138.41206 -67.01457 -114.71827 -27.89606 60.68090 -90.75050 15.06507 5.79643 -8.25842 13.37335 17.17438 14.43138 82.96163 -1.26513 70.89668 -1.31799 28.72635 92.98206 18.87190 10.56278 13.05827 19.87265 -2.41202 -23.70346 -32.56142 -4.24510 67.27206 5.02501 -0.00096 0.01451 6.65041 -11.86762 -55.07299 -35.43008 23.57219 15.43389 38.41247 -7.35858 -34.63171 -16.76035 0.02484 -0.03503 4.24763 -23.82569 18.83764 
77.10393 89.09597 -35.72270 -5.11617 10.03236 -155.02788 -12.56933 20.98715 -5.24637 -0.00490 0.00902 0.00335 -16.32785 24.31828 22.80614 -3.79390 11.55675 12.69210 -139.53169 -67.05191 -115.67347 -27.02003 61.01880 -91.10600 15.17561 5.97483 -8.01980 13.80096 16.06328 12.79115 82.46291 -1.10420 71.05917 -0.99336 28.53067 93.39841 17.08260 10.82092 13.45772 20.58876 -1.51539 -24.62989 -33.38575 -6.44952 68.60494 6.38279 -0.00116 0.01323 6.20250 -13.51365 -55.28602 -35.45636 23.87923 15.31069 37.87564 -8.63268 -34.00541 -13.45933 0.01804 -0.03601 1.02517 -22.83432 19.22730 
76.07652 89.15811 -35.53082 -4.66479 10.10202 -155.58376 -11.92583 21.57101 -3.91256 -0.00407 0.00284 -0.00327 -16.35995 23.65708 21.76774 -3.73088 10.86827 11.15849 -140.18199 -67.04681 -116.20320 -26.18417 61.18994 -91.49914 15.21634 6.15346 -7.94009 14.24861 14.98472 11.15487 82.06735 -0.95721 71.12923 -0.85529 28.39688 94.06472 17.97535 10.98986 12.57459 21.14035 -0.81951 -25.36489 -34.09814 -8.12638 69.80928 7.52240 -0.00095 0.01114 5.76745 -15.10388 -55.59469 -35.17928 22.95428 15.05484 37.25539 -8.40945 -34.10482 -9.90974 0.00890 -0.03159 -2.21636 -22.01742 19.47317 
75.09955 89.22633 -35.20664 -4.26094 10.21841 -156.06752 -11.37232 22.15513 -2.63413 -0.00353 0.00225 -0.00504 -16.32895 23.07248 20.78268 -3.61013 10.29411 9.72629 -140.49022 -67.00957 -116.42583 -25.41201 61.23767 -91.91145 15.26207 6.35172 -7.72756 14.67866 14.01907 9.61873 81.77632 -0.85842 71.16833 -0.85353 28.27346 94.90224 16.89415 11.17533 12.67231 21.01899 -0.32993 -24.78703 -34.25494 -8.49613 70.11809 8.41355 0.00028 0.00778 5.34904 -16.50440 -55.98179 -34.72678 21.05184 14.73915 36.63385 -6.75049 -34.70647 -6.09098 -0.00086 -0.01941 -5.44758 -21.54897 19.52453 
74.14251 89.31844 -34.79493 -3.92323 10.36465 -156.45874 -10.90496 22.74422 -1.45371 -0.00291 0.00225 -0.00601 -16.25288 22.55091 19.86789 -3.44546 9.81217 8.40163 -140.59822 -66.93895 -116.47350 -24.71890 61.21855 -92.33004 15.27319 6.56067 -7.61381 15.08610 13.15944 8.22235 81.57614 -0.82013 71.20761 -0.97992 28.17585 95.83797 17.42607 11.28562 11.93530 20.34067 -0.05744 -23.04078 -33.90171 -7.74789 69.60804 9.23988 -0.00393 0.00506 4.81965 -17.59101 -56.42557 -34.21725 19.06834 14.42130 37.59094 -4.12104 -34.03656 -20.52485 0.26242 -0.03995 8.14578 -22.56853 17.99743 
73.20565 89.43497 -34.35208 -3.65058 10.52624 -156.75426 -10.50637 23.32807 -0.39482 -0.00219 0.00246 -0.00656 -16.14616 22.08278 19.03187 -3.25150 9.40579 7.19187 -140.62761 -66.82333 -116.46120 -24.10464 61.18457 -92.74613 15.31248 6.79845 -7.42657 15.44477 12.39737 6.98153 81.47049 -0.84996 71.28309 -1.19524 28.07221 96.81882 16.81282 11.40604 11.87381 19.74181 0.04168 -21.36073 -33.55252 -6.81991 69.10350 9.98375 -0.00514 0.00371 4.20443 -18.46761 -56.89148 -33.71562 17.05207 14.11456 38.25869 -1.62912 -33.67694 -34.81375 0.19689 0.00724 21.75690 -22.86392 16.74429 
72.30691 89.57530 -33.92633 -3.43832 10.70127 -156.94258 -10.15343 23.90317 0.51912 -0.00157 0.00276 -0.00679 -16.01759 21.66590 18.27982 -3.04225 9.06620 6.11089 -140.64809 -66.64583 -116.45885 -23.55066 61.17201 -93.16773 15.36220 7.05254 -7.29930 15.74775 11.73209 5.89477 81.45669 -0.93366 71.40932 -1.48689 27.97619 97.80445 17.15828 11.44661 11.28398 19.21586 0.03697 -19.77979 -33.23182 -5.71036 68.56693 10.57749 -0.00494 0.00270 3.52359 -19.22463 -57.35645 -33.21427 14.87499 13.81155 40.11912 1.98624 -33.83379 -19.96425 -0.13661 0.22286 5.61371 -24.31470 15.07704 
71.47356 89.73917 -33.54576 -3.27269 10.89058 -157.01950 -9.82340 24.46194 1.27846 -0.00114 0.00306 -0.00676 -15.86892 21.30259 17.61296 -2.83032 8.78728 5.17297 -140.67381 -66.39065 -116.48981 -23.03042 61.19506 -93.60506 15.45784 7.31873 -7.12140 15.99421 11.16194 4.94432 81.53104 -1.05215 71.59802 -1.82725 27.87792 98.77621 16.83232 11.48171 11.14818 18.75667 -0.02944 -18.31976 -32.96378 -4.47917 67.98314 11.06160 -0.00439 0.00237 2.82855 -19.88327 -57.78244 -32.76014 12.54218 13.52727 42.25659 5.99262 -32.99403 -33.45769 0.38528 -0.07363 17.42766 -26.36939 12.63470 
70.72939 89.92101 -33.22047 -3.13927 11.09425 -156.98596 -9.50174 24.99522 1.88560 -0.00098 0.00335 -0.00650 -15.69585 20.99639 17.02775 -2.62541 8.56257 4.38660 -140.67937 -66.04765 -116.54122 -22.51824 61.25087 -94.06735 15.57376 7.57270 -6.96496 16.20385 10.68362 4.11284 81.67695 -1.18482 71.84569 -2.21031 27.79379 99.72082 17.05990 11.45701 10.67597 18.36165 -0.13606 -16.99168 -32.74352 -3.16545 67.35027 11.46682 -0.00378 0.00224 2.11791 -20.45853 -58.15176 -32.35352 10.06464 13.26804 44.87056 10.55470 -33.10510 -22.00928 -0.20608 0.19070 3.93771 -28.02919 9.80994 
70.08998 90.11671 -32.93475 -3.02187 11.30596 -156.85292 -9.18147 25.48855 2.35606 -0.00098 0.00359 -0.00610 -15.49227 20.74902 16.51608 -2.43199 8.38420 3.74709 -140.63220 -65.61434 -116.58906 -21.99292 61.32441 -94.55693 15.71559 7.80621 -6.76201 16.39254 10.28944 3.39016 81.87849 -1.32456 72.14894 -2.62617 27.72131 100.63490 16.87729 11.44118 10.50885 18.03092 -0.28346 -15.79004 -32.55076 -1.80221 66.67211 11.82143 -0.00317 0.00207 1.40594 -20.93680 -58.45007 -32.00533 7.59533 13.04608 46.48154 13.68021 -33.61869 -28.53458 0.08595 -0.04930 9.37187 -28.92120 8.62295 
69.55441 90.32491 -32.66301 -2.90951 11.51499 -156.63411 -8.86153 25.92923 2.70905 -0.00104 0.00385 -0.00561 -15.25455 20.55856 16.06671 -2.24587 8.24278 3.23626 -140.52388 -65.09521 -116.62001 -21.43955 61.40012 -95.07300 15.85217 8.01006 -6.55995 16.57259 9.96877 2.77841 82.12110 -1.47526 72.50152 -3.07870 27.66558 101.51408 16.99513 11.40662 10.13770 17.75665 -0.48539 -14.70214 -32.35826 -0.42356 65.95543 12.15546 -0.00261 0.00183 0.69479 -21.30962 -58.68082 -31.68570 5.26673 12.86790 47.51489 15.98474 -34.34348 -25.97725 -0.01594 -0.01169 6.02129 -28.73817 7.97403 
69.11434 90.54530 -32.38509 -2.79566 11.71025 -156.34195 -8.53994 26.30952 2.96116 -0.00101 0.00415 -0.00509 -14.98406 20.42000 15.66734 -2.05829 8.12900 2.83105 -140.37289 -64.49716 -116.63440 -20.85200 61.47027 -95.61039 15.98572 8.18377 -6.32287 16.74189 9.70952 2.28211 82.39962 -1.64809 72.90265 -3.56526 27.61670 102.35810 16.85815 11.39185 9.96532 17.52458 -0.75587 -13.71645 -32.13902 0.93433 65.20718 12.49651 -0.00209 0.00150 -0.00664 -21.56529 -58.85404 -31.39351 3.17844 12.74203 48.09910 17.84592 -35.07507 -27.61975 0.02681 0.00435 7.33581 -28.41886 7.67225 
68.75909 90.77533 -32.09400 -2.67959 11.88222 -155.98488 -8.21415 26.62729 3.12408 -0.00085 0.00450 -0.00452 -14.68623 20.32665 15.30635 -1.86542 8.03514 2.51151 -140.20102 -63.82581 -116.63229 -20.23003 61.53611 -96.16352 16.10910 8.32122 -6.07934 16.89319 9.50050 1.90114 82.71203 -1.85065 73.35221 -4.08646 27.57131 103.16091 16.89567 11.37295 9.66065 17.31654 -1.09888 -12.82742 -31.87145 2.23753 64.43110 12.86260 -0.00162 0.00112 -0.69068 -21.69304 -58.97816 -31.11209 1.38683 12.67262 48.39006 19.42660 -35.74671 -26.84572 0.01327 -0.00129 6.55947 -27.92879 7.76036 
68.47955 91.01113 -31.79440 -2.56396 12.02461 -155.56786 -7.88071 26.88442 3.20589 -0.00063 0.00489 -0.00392 -14.36884 20.27210 14.97398 -1.67041 7.95546 2.26341 -140.01526 -63.08599 -116.60247 -19.57667 61.60197 -96.72586 16.23690 8.42348 -5.81032 17.01902 9.33158 1.62302 83.05402 -2.08288 73.84994 -4.63570 27.52188 103.91648 16.78688 11.36127 9.48771 17.11621 -1.50485 -12.03519 -31.54134 3.45911 63.62620 13.25878 -0.00118 0.00069 -1.34971 -21.68929 -59.05460 -30.83497 -0.08284 12.66259 48.45108 20.81379 -36.28928 -26.96538 0.01916 0.00399 6.92480 -27.41978 7.93312 
68.26888 91.24622 -31.49778 -2.45361 12.13439 -155.09341 -7.53716 27.08478 3.21300 -0.00040 0.00528 -0.00331 -14.04021 20.25163 14.66265 -1.48194 7.88427 2.07548 -139.81320 -62.28781 -116.52875 -18.89969 61.67435 -97.28976 16.37050 8.49056 -5.53549 17.11592 9.19245 1.43053 83.41690 -2.33828 74.38803 -5.20892 27.46788 104.61681 16.78111 11.33906 9.24207 16.91153 -1.95390 -11.34294 -31.14151 4.58153 62.78885 13.67920 -0.00080 0.00025 -1.98253 -21.56231 -59.08516 -30.55359 -1.22975 12.71402 48.35580 22.01895 -36.69180 -26.39555 0.01587 0.00297 6.75790 -26.84832 8.24388 
68.12259 91.47210 -31.21687 -2.35406 12.21125 -154.56393 -7.18354 27.23223 3.15207 -0.00024 0.00559 -0.00279 -13.70833 20.26255 14.36699 -1.31081 7.81574 1.93447 -139.59854 -61.45068 -116.40394 -18.21158 61.76014 -97.84619 16.51535 8.53013 -5.24617 17.17706 9.07283 1.30788 83.79433 -2.60918 74.95156 -5.79946 27.40712 105.25822 16.69879 11.30926 9.09232 16.69547 -2.42234 -10.75352 -30.67112 5.59649 61.91613 14.11224 -0.00049 -0.00015 -2.59397 -21.32019 -59.07528 -30.26511 -2.06729 12.82832 48.14811 23.03335 -36.94593 -26.00714 0.01677 0.00461 6.85524 -26.23792 8.55258 
